<svg width="35" height="35" viewBox="0 0 35 35" fill="none" xmlns="http://www.w3.org/2000/svg">
<path d="M30.6249 18.1179V16.0412C30.6249 12.5602 29.2421 9.22185 26.7807 6.76044C24.3192 4.29902 20.9808 2.91621 17.4999 2.91621C14.0189 2.91621 10.6805 4.29902 8.2191 6.76044C5.75768 9.22185 4.37488 12.5602 4.37488 16.0412V18.1179C2.84532 18.7914 1.59354 19.9699 0.829117 21.4561C0.0646893 22.9423 -0.165992 24.646 0.17569 26.282C0.517373 27.918 1.41068 29.3869 2.70606 30.4429C4.00145 31.4989 5.62027 32.0779 7.29154 32.0829C8.06509 32.0829 8.80696 31.7756 9.35394 31.2286C9.90092 30.6816 10.2082 29.9398 10.2082 29.1662V20.4162C10.2082 19.6427 9.90092 18.9008 9.35394 18.3538C8.80696 17.8068 8.06509 17.4995 7.29154 17.4995V16.0412C7.29154 13.3338 8.36706 10.7373 10.2815 8.82283C12.1959 6.9084 14.7925 5.83288 17.4999 5.83288C20.2073 5.83288 22.8038 6.9084 24.7183 8.82283C26.6327 10.7373 27.7082 13.3338 27.7082 16.0412V17.4995C26.9347 17.4995 26.1928 17.8068 25.6458 18.3538C25.0988 18.9008 24.7915 19.6427 24.7915 20.4162V29.1662H20.4165C20.0298 29.1662 19.6588 29.3199 19.3853 29.5933C19.1119 29.8668 18.9582 30.2378 18.9582 30.6245C18.9582 31.0113 19.1119 31.3823 19.3853 31.6557C19.6588 31.9292 20.0298 32.0829 20.4165 32.0829H27.7082C29.3795 32.0779 30.9983 31.4989 32.2937 30.4429C33.5891 29.3869 34.4824 27.918 34.8241 26.282C35.1657 24.646 34.9351 22.9423 34.1706 21.4561C33.4062 19.9699 32.1544 18.7914 30.6249 18.1179V18.1179ZM7.29154 29.1662C6.13122 29.1662 5.01842 28.7053 4.19795 27.8848C3.37748 27.0643 2.91654 25.9515 2.91654 24.7912C2.91654 23.6309 3.37748 22.5181 4.19795 21.6976C5.01842 20.8772 6.13122 20.4162 7.29154 20.4162V29.1662ZM27.7082 29.1662V20.4162C28.8685 20.4162 29.9813 20.8772 30.8018 21.6976C31.6223 22.5181 32.0832 23.6309 32.0832 24.7912C32.0832 25.9515 31.6223 27.0643 30.8018 27.8848C29.9813 28.7053 28.8685 29.1662 27.7082 29.1662Z" fill="black"/>
</svg>
