<svg width="18" height="18" viewBox="0 0 18 18" fill="none" xmlns="http://www.w3.org/2000/svg">
<path d="M17.7956 9.31292C17.7977 8.97284 17.712 8.63798 17.5468 8.34069C17.3817 8.04341 17.1426 7.79374 16.8528 7.61582L7.72146 1.66183C7.22751 1.28703 6.63874 1.05758 6.02143 0.999312C5.40413 0.941047 4.78282 1.05629 4.22747 1.33205C3.67212 1.60781 3.20479 2.03315 2.87811 2.56016C2.55143 3.08717 2.37837 3.69492 2.37843 4.31496L2.3789 5.93428C2.37891 6.02193 2.36164 6.10873 2.32807 6.1897C2.2945 6.27068 2.24529 6.34423 2.18326 6.40617L0.689814 7.89961C0.480872 8.11064 0.322159 8.36603 0.225468 8.64681L0.218397 8.64634L0.218398 8.67085C0.0788036 9.08671 0.0797973 9.53692 0.221226 9.95216L0.221227 9.97667L0.228297 9.9762C0.324988 10.257 0.4837 10.5124 0.692642 10.7234L2.18609 12.2168C2.31114 12.3417 2.3815 12.5111 2.38173 12.6878V14.3066C2.37932 14.7432 2.46335 15.176 2.62897 15.58C2.79459 15.9839 3.03853 16.3511 3.34672 16.6604C3.60431 16.9174 3.90186 17.1309 4.22779 17.2926C4.77475 17.5691 5.38811 17.6873 5.99868 17.6339C6.60924 17.5804 7.19271 17.3574 7.68327 16.9899L16.8335 11.0218C17.1282 10.8448 17.3719 10.5942 17.5405 10.2946C17.7092 9.99501 17.7971 9.65672 17.7956 9.31292ZM3.71206 5.93616L3.71112 4.31638C3.70658 3.94353 3.80848 3.57711 4.00487 3.26014C4.20127 2.94317 4.484 2.6888 4.81989 2.52688C5.15958 2.35586 5.54124 2.286 5.91949 2.32562C6.29773 2.36523 6.65664 2.51264 6.95352 2.75033L15.9934 8.64586L1.8264 8.64681L3.12515 7.34806C3.31144 7.16319 3.45923 6.94322 3.55998 6.70088C3.66072 6.45853 3.71241 6.19861 3.71206 5.93616ZM6.91816 15.9024C6.62159 16.1266 6.2684 16.2636 5.89824 16.2982C5.52808 16.3328 5.1556 16.2636 4.82262 16.0982C4.48963 15.9329 4.20932 15.678 4.01315 15.3622C3.81698 15.0464 3.71272 14.6822 3.71206 14.3104L3.71206 12.6887C3.71278 12.4263 3.66145 12.1662 3.56103 11.9237C3.46061 11.6812 3.3131 11.461 3.12704 11.2759L1.82828 9.97714L15.9939 9.9795L6.91816 15.9024Z" fill="#374957"/>
</svg>
